<?xml version="1.0" encoding="UTF-8" standalone="no"?>
<!DOCTYPE svg PUBLIC "-//W3C//DTD SVG 1.1//EN" "http://www.w3.org/Graphics/SVG/1.1/DTD/svg11.dtd">
<!-- Created with Vectornator (http://vectornator.io/) -->
<svg height="20.0px" stroke-miterlimit="10" style="fill-rule:nonzero;clip-rule:evenodd;stroke-linecap:round;stroke-linejoin:round;" version="1.1" viewBox="0 0 20 20" width="20.0px" xml:space="preserve" xmlns="http://www.w3.org/2000/svg" xmlns:xlink="http://www.w3.org/1999/xlink">
<defs/>
<g id="图层-1">
<path d="M0.4 5.73333L0.4 14.2667L19.6 14.2667L19.6 5.73333L0.4 5.73333ZM1.46667 6.8L18.5333 6.8L18.5333 13.2L16.3667 13.2L16.3667 10.3667L3.6 10.3667L3.6 13.2L1.46667 13.2L1.46667 6.8ZM4.66667 11.1L15.3333 11.1L15.3333 13.2333L4.66667 13.2333L4.66667 11.1Z" fill="#575e75" fill-rule="nonzero" opacity="1" stroke="#575e75" stroke-linecap="round" stroke-linejoin="round" stroke-width="0.7"/>
<path d="M4.43558 8.72L5.28891 8.72L5.28891 10L4.43558 10L4.43558 8.72Z" fill="#575e75" fill-rule="nonzero" opacity="1" stroke="#575e75" stroke-linecap="round" stroke-linejoin="round" stroke-width="0.7"/>
<path d="M6.49068 8.72L7.34401 8.72L7.34401 10L6.49068 10L6.49068 8.72Z" fill="#575e75" fill-rule="nonzero" opacity="1" stroke="#575e75" stroke-linecap="round" stroke-linejoin="round" stroke-width="0.7"/>
<path d="M8.54578 8.72L9.39912 8.72L9.39912 10L8.54578 10L8.54578 8.72Z" fill="#575e75" fill-rule="nonzero" opacity="1" stroke="#575e75" stroke-linecap="round" stroke-linejoin="round" stroke-width="0.7"/>
<path d="M10.6009 8.72L11.4542 8.72L11.4542 10L10.6009 10L10.6009 8.72Z" fill="#575e75" fill-rule="nonzero" opacity="1" stroke="#575e75" stroke-linecap="round" stroke-linejoin="round" stroke-width="0.7"/>
<path d="M12.656 8.72L13.5093 8.72L13.5093 10L12.656 10L12.656 8.72Z" fill="#575e75" fill-rule="nonzero" opacity="1" stroke="#575e75" stroke-linecap="round" stroke-linejoin="round" stroke-width="0.7"/>
<path d="M14.7111 8.72L15.5644 8.72L15.5644 10L14.7111 10L14.7111 8.72Z" fill="#575e75" fill-rule="nonzero" opacity="1" stroke="#575e75" stroke-linecap="round" stroke-linejoin="round" stroke-width="0.7"/>
</g>
</svg>
