<?xml version="1.0" encoding="UTF-8" standalone="no"?>
<!DOCTYPE svg PUBLIC "-//W3C//DTD SVG 1.1//EN" "http://www.w3.org/Graphics/SVG/1.1/DTD/svg11.dtd">
<!-- Created with Vectornator (http://vectornator.io/) -->
<svg height="20.0px" stroke-miterlimit="10" style="fill-rule:nonzero;clip-rule:evenodd;stroke-linecap:round;stroke-linejoin:round;" version="1.1" viewBox="0 0 20 20" width="20.0px" xml:space="preserve" xmlns="http://www.w3.org/2000/svg" xmlns:xlink="http://www.w3.org/1999/xlink">
<defs/>
<g id="图层-1">
<path d="M2.45 7.5L2.45 12.5L7.45 12.5L7.45 7.5L2.45 7.5ZM3.95 9L5.95 9L5.95 11L3.95 11L3.95 9Z" fill="#575e75" fill-rule="nonzero" opacity="1" stroke="none"/>
<path d="M7.5 7.5L7.5 12.5L12.5 12.5L12.5 7.5L7.5 7.5ZM9 9L11 9L11 11L9 11L9 9Z" fill="#575e75" fill-rule="nonzero" opacity="1" stroke="none"/>
<path d="M12.55 7.5L12.55 12.5L17.55 12.5L17.55 7.5L12.55 7.5ZM14.05 9L16.05 9L16.05 11L14.05 11L14.05 9Z" fill="#575e75" fill-rule="nonzero" opacity="1" stroke="none"/>
</g>
</svg>
