<?xml version="1.0" encoding="UTF-8"?>
<!-- Generated by Pixelmator Pro 3.6.9 -->
<svg width="20" height="20" viewBox="0 0 20 20" xmlns="http://www.w3.org/2000/svg">
    <g id="g1">
        <path id="path1" fill="#575e75" stroke="none" d="M 1.45 7.5 L 1.45 12.5 L 6.45 12.5 L 6.45 7.5 L 1.45 7.5 Z M 2.95 9 L 4.95 9 L 4.95 11 L 2.95 11 L 2.95 9 Z"/>
        <path id="path2" fill="#575e75" stroke="none" d="M 5.5 7.5 L 5.5 12.5 L 10.5 12.5 L 10.5 7.5 L 5.5 7.5 Z M 7 9 L 9 9 L 9 11 L 7 11 L 7 9 Z"/>
        <path id="path3" fill="#575e75" stroke="none" d="M 9.55 7.5 L 9.55 12.5 L 14.549999 12.5 L 14.549999 7.5 L 9.55 7.5 Z M 11.05 9 L 13.049999 9 L 13.049999 11 L 11.05 11 L 11.05 9 Z"/>
        <path id="-" fill="#575e75" stroke="none" d="M 13.55 7.5 L 13.55 12.5 L 18.549999 12.5 L 18.549999 7.5 L 13.55 7.5 Z M 15.05 9 L 17.049999 9 L 17.049999 11 L 15.05 11 L 15.05 9 Z"/>
    </g>
</svg>
